<?xml version="1.0" encoding="UTF-8"?>
<svg xmlns="http://www.w3.org/2000/svg" xmlns:xlink="http://www.w3.org/1999/xlink" width="1190.55pt" height="841.89pt" viewBox="0 0 1190.55 841.89" version="1.1">
<g id="surface1">
<path style=" stroke:none;fill-rule:nonzero;fill:rgb(100%,100%,100%);fill-opacity:1;" d="M 600.917969 283.054688 L 780.632813 407.460938 L 600.917969 531.859375 L 421.214844 407.460938 Z M 600.917969 283.054688 "/>
<path style=" stroke:none;fill-rule:nonzero;fill:rgb(92.939758%,10.978699%,14.118958%);fill-opacity:1;" d="M 723.785156 428.90625 L 754.765625 407.460938 L 600.921875 300.960938 L 501.828125 369.5625 L 628.222656 369.5625 L 628.222656 443.882813 L 613.25 443.882813 L 613.25 384.539063 L 588.59375 384.539063 L 588.59375 443.882813 L 573.609375 443.882813 L 573.609375 384.539063 L 548.949219 384.539063 L 548.949219 443.882813 L 533.972656 443.882813 L 533.972656 384.539063 L 480.1875 384.539063 L 447.082031 407.460938 L 600.921875 513.953125 L 702.148438 443.882813 L 652.882813 443.882813 L 652.882813 369.5625 L 667.863281 369.5625 L 667.863281 428.90625 Z M 723.785156 428.90625 "/>
</g>
</svg>
