<svg id="Capa_1" enable-background="new 0 0 512 512" height="512" viewBox="0 0 512 512" width="512" xmlns="http://www.w3.org/2000/svg"><g><g><path d="m15 53.333v405.334h241l10.667-213.333-10.667-192.001z" fill="#fff"/><path d="m256 53.333h241v405.333h-241z" fill="#efeff0"/></g><path d="m264.334 195.174-119.154 71.493h-123.846v30h132.155l110.845-66.507z" fill="#ffb62d"/><path d="m358.513 138.667-80.179 48.107v34.986l88.488-53.093h123.845v-30z" fill="#f90"/><path d="m263.667 186.966-110.307-63.862h-132.026v30h123.968l118.365 68.527z" fill="#ff4f19"/><path d="m430.696 283.667-151.696-87.824v34.666l143.638 83.158h68.029v-30z" fill="#cc2f00"/><path d="m256 53.333h30v405.333h-30z" fill="#6fc8f1"/><path d="m53.334 390.333h106.666v30h-106.666z" fill="#57575a"/><g><path d="m164.334 280.5v-216.5h-30v231.5l121.666 91.25 10.667-13.417-10.667-24.083z" fill="#7d0"/><path d="m282.334 369-26.334-19.75v37.5l16.334 12.25h218.333v-30z" fill="#6b0"/></g><g><path d="m30 443.667v-375.334h226l10.001-15-10.001-15h-256v435.334h256l10.001-15-10.001-15z" fill="#dfdee0"/><path d="m512 38.333h-256v30h226v375.334h-226v30h256z" fill="#c6c5c9"/></g></g></svg>